<svg width="192" height="192" viewBox="0 0 192 192" fill="none" xmlns="http://www.w3.org/2000/svg">
<g filter="url(#filter0_i_1_3)">
<rect width="192" height="192" rx="48" fill="#043938"/>
<rect x="3" y="3" width="186" height="186" rx="45" stroke="#08F9A3" stroke-width="6"/>
<path d="M150 85.1116H108.334V102.924C112.04 100.507 116.386 99.1071 122.137 99.1071C135.43 99.1071 143.865 107.377 143.865 120.991C143.865 129.261 141.053 137.277 133.896 146.31L118.431 137.786C123.032 132.442 126.099 127.225 126.099 121.246C126.099 115.902 123.415 113.23 118.814 113.23C114.596 113.23 110.507 115.902 108.334 119.464V150H90.4402V133.842C85.5834 136.895 79.5763 138.422 73.058 138.422C57.3373 138.422 46.4734 130.279 46.4734 115.393C46.4734 101.016 56.5704 92.8728 74.0805 92.8728C78.426 92.8728 82.7716 93.2545 86.6059 94.0179L85.0722 108.141C82.516 107.504 79.4485 107.123 76.2533 107.123C68.5846 107.123 64.3669 110.304 64.3669 115.902C64.3669 121.373 68.4568 124.172 74.4639 124.172C81.1101 124.172 86.9894 120.355 90.4402 115.902V85.1116H42V70.8616H150V85.1116Z" fill="#08F9A3"/>
<path d="M90.7917 71.7522C84.9124 54.067 82.2284 50.5045 74.9432 50.5045C71.8757 50.5045 68.4248 51.2679 65.4852 52.4129L61.0118 38.5446C65.613 36.7634 70.7254 36 75.7101 36C91.4308 36 97.3101 43.3795 106.129 71.7522H90.7917Z" fill="#08F9A3"/>
</g>
<defs>
<filter id="filter0_i_1_3" x="0" y="0" width="192" height="192" filterUnits="userSpaceOnUse" color-interpolation-filters="sRGB">
<feFlood flood-opacity="0" result="BackgroundImageFix"/>
<feBlend mode="normal" in="SourceGraphic" in2="BackgroundImageFix" result="shape"/>
<feColorMatrix in="SourceAlpha" type="matrix" values="0 0 0 0 0 0 0 0 0 0 0 0 0 0 0 0 0 0 127 0" result="hardAlpha"/>
<feMorphology radius="456" operator="dilate" in="SourceAlpha" result="effect1_innerShadow_1_3"/>
<feOffset dx="-12" dy="-12"/>
<feGaussianBlur stdDeviation="20.4"/>
<feComposite in2="hardAlpha" operator="arithmetic" k2="-1" k3="1"/>
<feColorMatrix type="matrix" values="0 0 0 0 0.0313726 0 0 0 0 0.976471 0 0 0 0 0.639216 0 0 0 1 0"/>
<feBlend mode="normal" in2="shape" result="effect1_innerShadow_1_3"/>
</filter>
</defs>
</svg>
