<svg width="312" height="312" viewBox="0 0 312 312" fill="none" xmlns="http://www.w3.org/2000/svg">
<rect width="312" height="312" fill="#214235"/>
<path d="M90.5646 126.584L89.5566 114.404H231.769L232.777 126.584H90.5646ZM101.737 175.64V173.456C101.737 162.984 104.257 155.172 109.297 150.02C114.337 144.868 121.561 142.292 130.969 142.292C133.433 142.292 135.701 142.432 137.773 142.712C139.901 142.992 141.917 143.412 143.821 143.972L144.829 156.74C143.149 156.292 141.469 155.956 139.789 155.732C138.109 155.452 136.373 155.312 134.581 155.312C129.261 155.312 125.173 156.768 122.317 159.68C119.461 162.592 118.033 167.24 118.033 173.624V175.136C118.033 181.8 119.461 186.504 122.317 189.248C125.173 191.992 129.373 193.364 134.917 193.364C140.461 193.364 144.801 192.188 147.937 189.836C151.073 187.428 153.145 183.956 154.153 179.42L154.825 193.448H152.893C151.997 196.192 150.569 198.572 148.609 200.588C146.649 202.548 144.157 204.088 141.133 205.208C138.109 206.272 134.525 206.804 130.381 206.804C121.253 206.804 114.197 204.284 109.213 199.244C104.229 194.148 101.737 186.28 101.737 175.64ZM220.765 173.708V175.556C220.765 186.308 218.357 194.204 213.541 199.244C208.781 204.284 201.641 206.804 192.121 206.804C189.713 206.804 187.417 206.664 185.233 206.384C183.105 206.048 181.229 205.544 179.605 204.872L178.597 191.936C180.221 192.496 181.929 192.944 183.721 193.28C185.569 193.616 187.417 193.784 189.265 193.784C194.305 193.784 198.085 192.356 200.605 189.5C203.125 186.588 204.385 181.912 204.385 175.472V174.128C204.385 167.856 203.069 163.236 200.437 160.268C197.861 157.244 193.801 155.732 188.257 155.732C183.105 155.732 178.989 156.936 175.909 159.344C172.885 161.696 170.673 165.168 169.273 169.76L168.601 155.984H170.533C171.541 153.184 173.053 150.776 175.069 148.76C177.085 146.688 179.577 145.092 182.545 143.972C185.569 142.796 189.069 142.208 193.045 142.208C202.173 142.208 209.061 144.924 213.709 150.356C218.413 155.788 220.765 163.572 220.765 173.708ZM169.693 122.3V221H153.733V122.3H169.693Z" fill="#72FE8C"/>
<path d="M92.7513 71.8159H113.583C115.487 73.6079 117.979 75.9599 121.059 78.8719C124.139 81.7839 127.527 84.9759 131.223 88.4479C134.863 91.9199 138.503 95.3919 142.143 98.8639C145.727 102.28 149.059 105.416 152.139 108.272C155.163 111.128 157.571 113.396 159.363 115.076V117.008H144.495V113.816C141.135 112.08 138.083 110.428 135.339 108.86C132.595 107.236 129.991 105.556 127.527 103.82C125.007 102.084 122.543 100.236 120.135 98.2759C117.671 96.2599 115.039 93.9639 112.239 91.3879L92.7513 73.4959V71.8159Z" fill="#72FE8C"/>
</svg>
