<svg width="465" height="162" viewBox="0 0 465 162" fill="none" xmlns="http://www.w3.org/2000/svg">
<g clip-path="url(#clip0_1058_3295)">
<path fill-rule="evenodd" clip-rule="evenodd" d="M367.602 8.25364C367.107 13.8987 364.165 20.8064 363.022 23.8518C358.818 35.0478 355.03 44.0798 352.547 43.1316C350.065 42.1783 352.352 32.4654 354.029 20.4103C354.661 15.872 357.605 -3.15527 364.707 0.452104C367.28 1.75938 367.91 4.76511 367.602 8.25364Z" fill="white"/>
<path fill-rule="evenodd" clip-rule="evenodd" d="M409.331 18.0114C408.733 19.261 408.032 20.4205 407.354 21.4207C404.066 26.2442 400.356 30.7771 396.461 35.0813C385.84 46.7954 376.735 56.0413 373.758 53.609C370.784 51.1715 378.144 40.3161 385.687 26.2545C388.849 20.3537 392.66 14.2241 397.451 9.60113C400.243 6.90656 405.858 3.18353 409.21 7.09426C411.908 10.2465 411.029 14.4735 409.331 18.0114Z" fill="white"/>
<path fill-rule="evenodd" clip-rule="evenodd" d="M458.871 83.2868C455.647 84.8353 451.905 85.8144 449.649 86.4116C446.219 87.319 442.753 88.0782 439.261 88.7379C424.384 91.5341 412.069 93.3534 411.027 89.9462C410.093 86.9047 416.156 84.7543 418.195 83.8169C425.952 80.2453 433.88 76.595 441.941 73.7016C447.23 71.8013 461.541 66.5377 464.578 74.3521C466.189 78.4769 462.941 81.3309 458.871 83.2868Z" fill="white"/>
<path fill-rule="evenodd" clip-rule="evenodd" d="M444.748 40.9591C442.552 43.3123 439.757 45.2527 437.287 47.1334C433.426 50.0809 429.423 52.8447 425.327 55.4581C410.18 65.1097 397.456 72.5776 395.099 69.4964C392.645 66.2887 402.503 58.2504 404.142 56.5798C409.988 50.6298 415.812 44.6035 422.15 39.1595C426.942 35.0473 440.376 22.2954 447.431 28.83C449.879 31.0998 448.499 35.2096 447.162 37.675C446.517 38.866 445.689 39.9495 444.748 40.9591Z" fill="white"/>
<path fill-rule="evenodd" clip-rule="evenodd" d="M14.553 160.511H17.8985C26.0951 160.511 32.117 156.54 32.117 145.123V125.764L50.0155 151.411C54.6993 158.525 61.5576 161.007 67.4123 161.007C76.947 161.007 85.9799 153.065 85.1435 151.411L60.7212 117.491L82.9689 86.2194C83.8053 84.3994 75.2742 76.4573 65.5722 76.4573C60.0521 76.4573 53.1938 78.9392 48.6773 86.054L32.117 110.707V67.3571C32.117 47.9983 21.5786 43.2 12.3784 43.2C5.85466 43.2 0 45.6818 0 46.8401V145.123C0 156.871 6.02194 160.511 14.553 160.511ZM138.635 162C162.053 162 174.934 153.727 174.934 142.807C174.934 130.728 160.213 129.239 160.213 129.57C157.035 135.195 150.177 139.994 140.14 139.994C129.936 139.994 122.911 135.692 120.903 127.088H173.261C178.112 127.088 179.617 123.613 179.785 118.815V116.829C179.785 93.1687 162.053 75.961 136.627 75.961C111.034 75.961 92.4665 94.4924 92.4665 119.642C92.4665 145.95 110.365 162 138.635 162ZM136.293 96.6434C145.158 96.6434 150.679 102.269 150.846 110.707H120.402C121.405 102.6 127.929 96.6434 136.293 96.6434ZM209.523 160.511H212.868C221.065 160.511 227.087 156.54 227.087 145.123V125.764L244.985 151.411C249.669 158.525 256.527 161.007 262.382 161.007C271.917 161.007 280.949 153.065 280.113 151.411L255.691 117.491L277.938 86.2194C278.775 84.3994 270.244 76.4573 260.542 76.4573C255.022 76.4573 248.163 78.9392 243.647 86.054L227.087 110.707V67.3571C227.087 47.9983 216.548 43.2 207.348 43.2C200.824 43.2 194.97 45.6818 194.97 46.8401V145.123C194.97 156.871 200.991 160.511 209.523 160.511ZM314.869 161.338C326.913 161.338 337.117 156.374 342.637 147.936C345.146 156.705 351.503 161.173 360.703 161.173C366.892 161.173 373.081 159.187 373.081 157.533V110.873C373.081 87.3777 360.034 75.961 330.259 75.961C302.825 75.961 290.447 84.0685 290.447 96.9743C290.447 111.038 311.524 109.88 311.691 109.384C313.866 104.42 318.048 98.4635 328.419 98.4635C336.113 98.4635 340.63 102.269 341.299 109.384H338.121C302.825 109.549 287.269 118.484 287.269 137.181C287.269 151.411 298.142 161.338 314.869 161.338ZM327.415 141.979C321.56 141.979 317.713 139.167 317.713 134.368C317.713 128.081 324.571 125.433 337.452 125.102H341.466V127.915C341.466 136.188 335.946 141.979 327.415 141.979Z" fill="white"/>
</g>
<defs>
<clipPath id="clip0_1058_3295">
<rect width="465" height="162" fill="white"/>
</clipPath>
</defs>
</svg>
