<svg width="200" height="200" viewBox="0 0 200 200" fill="none" xmlns="http://www.w3.org/2000/svg">
<rect width="200" height="200" fill="#5B7EDB"/>
<path d="M134.32 131.25C119.337 131.25 108.711 120.842 98.886 109.454C88.9726 120.912 78.3829 131.25 63.4481 131.25C46.6768 131.25 33.0352 117.734 33.0352 101.118C33.0352 84.5021 46.6768 70.9824 63.4481 70.9824C78.4383 70.9824 89.3864 81.609 98.886 92.5534C108.378 81.6164 119.337 70.9824 134.32 70.9824C151.092 70.9824 164.733 84.5021 164.733 101.118C164.733 117.734 151.084 131.25 134.32 131.25ZM106.08 101.007C114.974 111.401 123.572 120.295 134.32 120.295C145.039 120.295 153.759 111.697 153.759 101.122C153.759 90.5544 145.039 81.9526 134.32 81.9526C123.413 81.9453 114.819 90.7909 106.08 101.007ZM63.4481 81.9453C52.7291 81.9453 44.0128 90.547 44.0128 101.118C44.0128 111.693 52.7291 120.287 63.4481 120.287C74.252 120.287 82.8796 111.32 91.692 100.996C82.9388 90.7909 74.3518 81.9453 63.4481 81.9453Z" fill="white"/>
</svg>
