<svg width="130" height="32" viewBox="0 0 130 32" fill="none" xmlns="http://www.w3.org/2000/svg">
<path d="M54.17 24.255L47.369 8.835H49.59L54.17 19.522L58.743 8.836H60.971L54.171 24.255H54.17ZM83.097 13.714C81.358 13.7128 79.686 14.3843 78.431 15.588C77.8221 16.1719 77.3368 16.8721 77.0038 17.6472C76.6709 18.4223 76.4972 19.2564 76.493 20.1C76.4897 21.3387 76.8605 22.5496 77.557 23.574L79.254 22.507C78.7019 21.6852 78.4493 20.6986 78.5385 19.7126C78.6277 18.7266 79.0534 17.8013 79.744 17.092C80.4454 16.3658 81.3652 15.8888 82.363 15.734C83.3661 15.5752 84.3938 15.7446 85.293 16.217C86.1791 16.6801 86.8851 17.4259 87.299 18.336C87.705 19.238 87.789 20.246 87.538 21.199C87.2807 22.1607 86.7064 23.0074 85.908 23.602C85.0965 24.2078 84.1106 24.5341 83.098 24.532V26.492C84.838 26.4966 86.512 25.8263 87.768 24.622C88.3772 24.0378 88.8625 23.3368 89.1948 22.5609C89.5271 21.785 89.6996 20.9501 89.702 20.106C89.6994 19.2619 89.5268 18.4269 89.1943 17.651C88.8619 16.875 88.3764 16.1741 87.767 15.59C86.511 14.3856 84.837 13.7153 83.097 13.72V13.714ZM28.288 20.1C28.288 16.625 31.322 13.687 34.92 13.687C38.52 13.687 41.551 16.621 41.551 20.1C41.551 23.58 38.518 26.512 34.921 26.512C31.323 26.512 28.288 23.576 28.288 20.1ZM30.338 20.1C30.338 22.479 32.461 24.53 34.92 24.53C37.332 24.53 39.502 22.479 39.502 20.1C39.502 17.674 37.332 15.669 34.92 15.669C32.46 15.669 30.339 17.674 30.339 20.1H30.338ZM103.916 26.532C105.203 26.5343 106.442 26.0379 107.371 25.147C107.822 24.7149 108.181 24.1966 108.427 23.6227C108.673 23.0489 108.801 22.4314 108.804 21.807V8.57H106.779V21.807C106.77 22.1677 106.689 22.523 106.541 22.8522C106.394 23.1814 106.182 23.4781 105.919 23.725C105.377 24.2341 104.661 24.5167 103.917 24.515C103.173 24.5167 102.457 24.2341 101.915 23.725C101.652 23.4781 101.44 23.1814 101.293 22.8522C101.145 22.523 101.064 22.1677 101.055 21.807V8.57H99.03V21.807C99.0323 22.4314 99.1604 23.049 99.4066 23.6228C99.6528 24.1966 100.012 24.715 100.463 25.147C101.392 26.0377 102.629 26.5341 103.916 26.532ZM114.458 21.796C114.455 24.1919 113.592 26.5071 112.026 28.32C110.429 30.1659 108.245 31.4051 105.841 31.829C103.423 32.2641 100.928 31.8658 98.766 30.699C96.616 29.535 94.957 27.679 94.076 25.455C93.0939 27.3337 91.6325 28.9193 89.84 30.051C88.0231 31.2003 85.9418 31.8645 83.795 31.98C81.6445 32.0991 79.4994 31.6668 77.563 30.724C75.6494 29.7948 74.0133 28.3796 72.818 26.62V31.365H70.792V8.833H72.818V13.578C74.2901 11.4175 76.4156 9.78542 78.883 8.921C81.3767 8.04093 84.0831 7.96191 86.624 8.695C89.1423 9.41407 91.3655 10.918 92.97 12.988C94.545 15.0236 95.4004 17.5242 95.402 20.098V21.804C95.4193 22.8836 95.6523 23.9488 96.0871 24.9371C96.5219 25.9253 97.1498 26.8168 97.934 27.559C99.5494 29.0894 101.692 29.9398 103.917 29.934C106.157 29.934 108.306 29.081 109.9 27.559C110.684 26.8167 111.312 25.9253 111.747 24.937C112.182 23.9487 112.415 22.8836 112.432 21.804V15.373C112.462 12.989 113.371 11.413 114.951 10.107C116.701 8.662 119.088 8.187 121.246 8.187C124.027 8.187 126.739 9.201 128.471 10.956L127.705 12.61C125.922 11.0336 123.628 10.1574 121.248 10.144C117.28 10.144 114.456 12.082 114.456 15.364V15.437C114.536 21.61 124.602 20.817 124.602 24.76C124.602 26.227 123.187 27.499 120.662 27.499C118.838 27.499 116.981 26.885 115.453 25.899C115.689 25.276 115.87 24.636 115.995 23.984C117.525 25.014 119.093 25.597 120.778 25.597C121.965 25.597 122.571 25.3 122.571 24.753C122.571 24.405 122.229 24.039 119.801 23.1C117.705 22.291 115.802 21.359 114.449 20.086L114.458 21.796ZM93.376 20.1C93.3738 18.1262 92.77 16.1999 91.645 14.578C90.5003 12.9308 88.8959 11.6571 87.032 10.916C85.1469 10.1628 83.0853 9.96639 81.092 10.35C79.1109 10.7269 77.2823 11.672 75.829 13.07C74.4 14.4446 73.4196 16.2187 73.016 18.16C72.6193 20.0887 72.8231 22.0926 73.6 23.902C74.39 25.7326 75.7082 27.2858 77.386 28.363C79.0889 29.4592 81.0717 30.0411 83.097 30.039C85.822 30.036 88.435 28.988 90.362 27.125C92.289 25.262 93.373 22.735 93.376 20.1ZM119.872 15.277C119.872 14.919 120.347 14.623 121.312 14.623C121.785 14.6249 122.255 14.684 122.714 14.799C123.897 15.0831 125.006 15.6163 125.967 16.363L126.739 14.698C125.412 13.631 123.092 12.662 121.117 12.662C118.935 12.662 117.852 14.05 117.852 15.359C117.852 19.311 127.748 18.202 127.748 24.504C127.748 27.945 124.726 29.971 120.473 29.971C118.293 29.9577 116.171 29.2703 114.397 28.003C114.035 28.568 113.625 29.103 113.171 29.603C115.195 31.057 117.997 31.923 120.479 31.923C125.829 31.923 129.778 29.104 129.778 24.409C129.768 17.466 119.872 16.973 119.872 15.277ZM64.994 31.365H67.021V13.573L64.994 17.982V31.365ZM55.538 29.405H52.807L46.327 15.445C44.004 10.44 39.348 8.201 34.985 8.201C33.4183 8.19471 31.8646 8.48516 30.406 9.057V0H28.385V12.491C30.2556 10.9732 32.594 10.1499 35.003 10.161C40.92 10.161 45.283 14.827 45.283 20.101C45.279 22.735 44.195 25.261 42.268 27.125C40.341 28.988 37.728 30.035 35.003 30.039C32.593 30.039 30.438 29.247 28.936 28.023L27.742 29.583C29.811 31.183 32.234 31.999 34.991 31.999C37.8879 32.0061 40.6983 31.0124 42.947 29.186C45.171 27.368 46.657 24.846 47.141 22.07L51.451 31.365H56.888L67.24 8.833H65.08L55.54 29.405H55.538ZM5.69795 20.1C5.69795 18.837 6.08495 17.602 6.80995 16.552C7.54585 15.4938 8.57708 14.6758 9.77495 14.2C10.986 13.7163 12.3104 13.5904 13.591 13.837C14.8635 14.0791 16.0383 14.6861 16.972 15.584C17.8902 16.467 18.5204 17.6068 18.78 18.854C19.0347 20.0935 18.9035 21.3813 18.404 22.544C17.8962 23.7201 17.049 24.718 15.971 25.41C14.8769 26.1143 13.6031 26.4882 12.302 26.487C10.5629 26.4879 8.89088 25.816 7.63595 24.612C7.02686 24.0283 6.54133 23.328 6.20823 22.5529C5.87513 21.7778 5.70226 20.9436 5.69795 20.1ZM7.72295 20.1C7.72295 20.976 7.99095 21.832 8.49495 22.56C9.00491 23.2937 9.71964 23.861 10.55 24.191C11.3894 24.5263 12.3073 24.6138 13.195 24.443C14.0777 24.2751 14.8925 23.854 15.54 23.231C16.1764 22.6187 16.6131 21.8286 16.793 20.964C16.9697 20.1048 16.8789 19.2121 16.533 18.406C16.1809 17.5906 15.5935 16.8987 14.846 16.419C14.2141 16.0135 13.4945 15.7647 12.7471 15.6934C11.9997 15.6221 11.2461 15.7303 10.549 16.009C9.99575 16.2296 9.49071 16.5556 9.06195 16.969C8.63595 17.379 8.29895 17.868 8.06795 18.405C7.83766 18.9405 7.71859 19.5171 7.71795 20.1H7.72295ZM22.581 13.567C21.4493 11.9084 19.9241 10.556 18.142 9.631C16.3382 8.69341 14.3348 8.20525 12.302 8.208V10.161C15.027 10.164 17.639 11.211 19.566 13.074C21.493 14.936 22.577 17.462 22.581 20.096C22.5818 21.7057 22.181 23.2902 21.415 24.706C20.6383 26.1379 19.5254 27.3596 18.172 28.266C16.8003 29.1861 15.2307 29.7693 13.591 29.968C11.944 30.169 10.271 29.982 8.71595 29.422C7.16976 28.8683 5.77841 27.9528 4.65795 26.752C3.55414 25.5692 2.75901 24.1324 2.34295 22.569C1.93198 21.0159 1.91651 19.3846 2.29795 17.824C2.68351 16.2533 3.45088 14.802 4.53195 13.599L2.99595 12.321C1.70389 13.7611 0.78713 15.4978 0.326954 17.377C-0.12782 19.2445 -0.10788 21.1962 0.384954 23.054C0.88344 24.9243 1.83517 26.643 3.15595 28.058C4.4968 29.4939 6.16135 30.5887 8.01095 31.251C9.87095 31.921 11.873 32.145 13.843 31.905C15.813 31.665 17.693 30.967 19.323 29.871C20.9435 28.7873 22.2764 27.326 23.207 25.613C24.127 23.912 24.607 22.02 24.607 20.1V0H22.58L22.581 13.567Z" fill="black"/>
</svg>
